<svg width="24" height="24" viewBox="0 0 24 24" fill="none" xmlns="http://www.w3.org/2000/svg">
<path d="M4.39746 11.177C4.66329 13.0035 5.57784 14.6733 6.97381 15.8808C8.36977 17.0883 10.1538 17.7528 11.9996 17.7528M11.9996 17.7528C13.8453 17.7528 15.6294 17.0883 17.0253 15.8808C18.4213 14.6733 19.3358 13.0035 19.6017 11.177M11.9996 17.7528V21.5999M12.0007 2.3999C11.1277 2.3999 10.2905 2.74668 9.67327 3.36394C9.05601 3.9812 8.70923 4.81839 8.70923 5.69133V10.0799C8.70923 10.9528 9.05601 11.79 9.67327 12.4073C10.2905 13.0246 11.1277 13.3713 12.0007 13.3713C12.8736 13.3713 13.7108 13.0246 14.3281 12.4073C14.9453 11.79 15.2921 10.9528 15.2921 10.0799V5.69133C15.2921 4.81839 14.9453 3.9812 14.3281 3.36394C13.7108 2.74668 12.8736 2.3999 12.0007 2.3999Z" stroke="current" stroke-width="2" stroke-linecap="round" stroke-linejoin="round"/>
</svg>
